<?xml version="1.0" encoding="utf-8"?>
<svg version="1.1" id="Layer_1" xmlns="http://www.w3.org/2000/svg" xmlns:xlink="http://www.w3.org/1999/xlink" x="0px" y="0px"
	 width="244.68px" height="55px" viewBox="0 0 244.68 55" enable-background="new 0 0 244.68 55" xml:space="preserve">
<g>
	<path fill="#1C1D21" d="M79.605,35.053v-4.35c-2.629,3.533-5.348,4.938-9.561,4.938c-7.611,0-13.273-5.527-13.273-12.911
		c0-7.429,5.617-13.048,13.047-13.048c4.305,0,7.34,1.541,9.787,4.984v-4.395h3.352v24.782H79.605z M69.91,12.763
		c-5.393,0-9.74,4.348-9.74,9.74c0,5.663,4.303,10.057,9.92,10.057c5.348,0,9.516-4.395,9.516-10.012
		C79.605,17.021,75.346,12.763,69.91,12.763z"/>
	<path fill="#1C1D21" d="M99.213,35.641c-7.611,0-13.502-5.662-13.502-13.047c0-7.203,5.846-12.912,13.275-12.912
		c5.572,0,10.328,3.126,12.322,8.109h-3.762c-1.902-3.262-4.938-5.027-8.607-5.027c-5.525,0-9.83,4.348-9.83,9.92
		c0,5.482,4.395,9.877,9.967,9.877c3.488,0,5.889-1.359,8.471-4.803h3.807C108.363,33.422,104.332,35.641,99.213,35.641z"/>
	<path fill="#1C1D21" d="M136.807,43.75V30.793c-2.174,3.172-5.527,4.848-9.65,4.848c-7.383,0-13.137-5.662-13.137-12.957
		c0-7.339,5.662-13.002,13.047-13.002c4.213,0,7.656,1.677,9.74,4.847v-4.258h3.354V43.75H136.807z M127.203,12.763
		c-5.572,0-9.785,4.258-9.785,9.967c0,5.573,4.213,9.831,9.785,9.831c5.48,0,9.83-4.305,9.83-9.741
		C137.033,17.066,132.82,12.763,127.203,12.763z"/>
	<path fill="#1C1D21" d="M162.029,35.053v-3.852c-1.676,3.08-4.123,4.439-7.975,4.439c-6.297,0-10.51-3.352-10.51-12.005V10.271
		h3.352v13.365c0,6.298,2.627,8.925,7.43,8.925c4.531,0,7.703-2.809,7.703-9.559V10.271h3.354v24.782H162.029z"/>
	<path fill="#1C1D21" d="M191.969,35.053v-4.35c-2.627,3.533-5.346,4.938-9.559,4.938c-7.611,0-13.273-5.527-13.273-12.911
		c0-7.429,5.617-13.048,13.047-13.048c4.305,0,7.34,1.541,9.785,4.984v-4.395h3.354v24.782H191.969z M182.273,12.763
		c-5.391,0-9.74,4.348-9.74,9.74c0,5.663,4.305,10.057,9.922,10.057c5.346,0,9.514-4.395,9.514-10.012
		C191.969,17.021,187.711,12.763,182.273,12.763z"/>
	<rect x="199.027" y="10.271" fill="#1C1D21" width="3.354" height="24.782"/>
	<path fill="#1C1D21" d="M224.662,35.053V22.051c0-6.75-3.08-9.288-7.656-9.288c-4.484,0-7.566,2.582-7.566,8.653v13.637h-3.352
		V10.271h3.352v3.217c2.084-2.537,4.713-3.806,7.975-3.806c6.207,0,10.6,3.67,10.6,12.369v13.002H224.662z"/>
	<path fill="#1C1D21" d="M239.107,13.306v21.747h-3.352V13.306h-5.346v-3.035h5.346V1.573h3.352v8.698h5.572v3.035H239.107z"/>
	<g>
		<path fill="#1C1D21" d="M152.318,41.889c-0.061-0.762-0.328-1.307-1.49-1.307c-1.295,0-1.549,0.594-1.549,1.525
			c0,1.295,1.127,1.283,2.301,1.404c1.078,0.109,2.191,0.643,2.191,2.592c0,2.01-0.764,2.869-2.689,2.869h-0.229
			c-1.914,0-2.785-0.932-2.871-2.518h1.248c0.061,0.787,0.412,1.393,1.611,1.393h0.229c1.26,0,1.514-0.594,1.514-1.684
			c0-1.525-1.004-1.549-2.166-1.646c-1.09-0.084-2.338-0.617-2.338-2.398c0-1.73,0.787-2.625,2.748-2.625
			c1.854,0,2.604,0.859,2.689,2.395H152.318z"/>
		<path fill="#1C1D21" d="M167.139,45.861c0,2.047-0.459,3.148-3.025,3.148c-2.568,0-3.027-1.102-3.027-3.148v-3.258
			c0-2.045,0.459-3.146,3.027-3.146c2.566,0,3.025,1.102,3.025,3.146V45.861z M165.977,42.594c0-1.479-0.121-2.084-1.863-2.084
			c-1.744,0-1.865,0.605-1.865,2.084v3.279c0,1.479,0.121,2.059,1.865,2.059c1.742,0,1.863-0.58,1.863-2.059V42.594z"/>
		<path fill="#1C1D21" d="M175.93,40.656v2.855h3.355v1.078h-3.355v4.348h-1.15V39.59h5.014v1.066H175.93z"/>
		<path fill="#1C1D21" d="M189.418,40.703v8.223h-1.15v-8.223h-1.936v-1.064h5.023v1.064H189.418z"/>
		<path fill="#1C1D21" d="M200.691,40.703v8.223h-1.15v-8.223h-1.938v-1.064h5.025v1.064H200.691z"/>
		<path fill="#1C1D21" d="M214.338,39.578v1.016h-3.561v2.809h3.221v1.078h-3.221v3.367h3.863v1.078h-5.014v-9.348H214.338z"/>
		<path fill="#1C1D21" d="M226.529,42.217c-0.012-1.125-0.242-1.635-1.791-1.635c-1.623,0-1.816,0.582-1.816,2.059v3.197
			c0,1.477,0.242,2.057,1.816,2.057s1.816-0.35,1.816-1.826h1.102c0,1.803-0.193,2.918-2.918,2.918s-2.979-1.115-2.979-3.162v-3.172
			c0-2.045,0.484-3.148,2.979-3.148c2.422,0,2.893,0.908,2.918,2.713H226.529z"/>
		<path fill="#1C1D21" d="M239.389,48.926v-3.912h-3.125v3.924h-1.174v-9.324h1.174v4.299h3.125v-4.299h1.15v9.313H239.389z"/>
	</g>
	<polygon fill="#ED1C24" points="199.027,7.598 199.027,7.598 202.41,4.215 202.41,7.598 	"/>
	<g>
		<circle fill="#ED1C24" cx="8.117" cy="34.349" r="8.117"/>
		<path fill="#FF3848" d="M12.234,28.388c0.777,1.15,1.232,2.536,1.232,4.028c0,3.975-3.223,7.196-7.197,7.196
			c-1.494,0-2.881-0.455-4.031-1.234c1.293,1.911,3.482,3.168,5.965,3.168c3.975,0,7.197-3.223,7.197-7.197
			C15.4,31.869,14.145,29.683,12.234,28.388z"/>
		<path fill="#F24B09" d="M43.131,27.279c-4.033,0-6.254-1.216-8.748-3.63c-2.494-2.413-2.584-8.626-2.584-8.626
			c0-5.336-4.326-9.662-9.664-9.662c-5.336,0-9.662,4.326-9.662,9.662c0,4.913,3.668,8.96,8.414,9.575l-0.002,0.018
			c0,0,5.131,0.92,7.219,3.69c2.09,2.771,2.668,5.298,2.172,9.3l0.008-0.007c-0.201,0.915-0.316,1.865-0.316,2.843
			c0,7.271,5.895,13.165,13.164,13.165c7.271,0,13.164-5.894,13.164-13.165C56.295,33.172,50.402,27.279,43.131,27.279z"/>
		<path opacity="0.3" fill="#FFFFFF" d="M49.289,31.458c1.195,1.764,1.893,3.889,1.893,6.177c0,6.095-4.941,11.035-11.037,11.035
			c-2.289,0-4.416-0.698-6.18-1.894c1.982,2.93,5.338,4.857,9.143,4.857c6.096,0,11.037-4.94,11.037-11.035
			C54.145,36.798,52.219,33.443,49.289,31.458z"/>
	</g>
</g>
</svg>
